<?xml version="1.0" encoding="utf-8"?>
<svg viewBox="7.733 15.159 64.941 117.666" xmlns="http://www.w3.org/2000/svg">
  <g transform="matrix(1, 0, 0, 1, -917.575806, -2.424242)">
    <polygon fill="#09E900" points="985.846,17.583 966.691,67.703 990.25,67.781 929.704,135.249 949.282,84.776 925.309,84.776 &#9;"/>
    <g>
      <defs>
        <rect id="SVGID_1_" width="1920" height="1080"/>
      </defs>
      <clipPath id="SVGID_2_">
        <rect width="1920" height="1080" transform="matrix(1, 0, 0, 1, 0, 0)" overflow="visible"/>
      </clipPath>
      <path clip-path="url(#SVGID_2_)" fill="#099C00" d="M965.762,68.256c-0.116,0.068-0.24,0.101-0.38,0.1 c-1.164-0.003-2.328-0.001-3.492-0.002c-0.05,0-0.1-0.003-0.148-0.01c-0.107-0.015-0.163-0.115-0.129-0.222 c0.011-0.032,0.023-0.063,0.038-0.093c0.223-0.482,0.44-0.966,0.67-1.445c0.421-0.885,0.867-1.758,1.265-2.653 c0.236-0.532,0.499-1.049,0.747-1.574c0.554-1.17,1.12-2.335,1.649-3.517c0.237-0.531,0.498-1.049,0.747-1.574 c0.582-1.23,1.18-2.454,1.738-3.695c0.245-0.545,0.514-1.079,0.769-1.619c0.547-1.155,1.107-2.304,1.627-3.472 c0.271-0.607,0.573-1.198,0.857-1.798c0.555-1.17,1.12-2.335,1.649-3.516c0.238-0.531,0.506-1.047,0.746-1.575 c0.562-1.24,1.156-2.465,1.738-3.695c0.255-0.54,0.522-1.075,0.769-1.619c0.525-1.166,1.09-2.313,1.627-3.472 c0.272-0.588,0.56-1.167,0.836-1.753c0.561-1.187,1.135-2.365,1.672-3.562c0.238-0.531,0.502-1.048,0.746-1.574 c0.343-0.737,0.676-1.479,1.014-2.218c0.021-0.045,0.044-0.09,0.064-0.135c0.477-0.987,0.956-1.973,1.43-2.961 c0.086-0.179,0.153-0.367,0.231-0.55c0.015-0.033,0.051-0.039,0.074-0.008c0.018,0.025,0.019,0.063,0.026,0.095 c0.062,0.07,0.057,0.136-0.011,0.199l0.004-0.006c-0.049,0.061-0.035,0.148-0.087,0.207c-0.024,0.016-0.031,0.038-0.019,0.065 c-0.033,0.077-0.028,0.17-0.093,0.235l0.001-0.004c-0.09,0.08,0.001,0.229-0.112,0.3l0.006-0.009 c-0.041,0.066-0.033,0.153-0.089,0.213v0.001c-0.097,0.076-0.005,0.223-0.111,0.296l0.004-0.008 c-0.048,0.062-0.034,0.15-0.087,0.209c-0.025,0.015-0.031,0.035-0.019,0.062c-0.031,0.079-0.027,0.172-0.094,0.237l0.002-0.005 c-0.089,0.081,0.003,0.231-0.112,0.301l0.006-0.01c-0.04,0.068-0.031,0.155-0.09,0.214l0.001-0.001 c-0.095,0.078-0.003,0.225-0.112,0.298l0.005-0.008c-0.047,0.063-0.033,0.151-0.088,0.21c-0.025,0.014-0.031,0.033-0.017,0.058 c-0.029,0.081-0.027,0.174-0.096,0.24l0.003-0.005c-0.051,0.059-0.035,0.145-0.085,0.205c-0.024,0.018-0.031,0.041-0.021,0.069 c-0.035,0.075-0.03,0.167-0.091,0.232l0.001-0.003c-0.094,0.079-0.002,0.227-0.112,0.299l0.005-0.008 c-0.044,0.065-0.035,0.152-0.089,0.212l-0.001,0.002c-0.098,0.075-0.007,0.221-0.11,0.295l0.003-0.007 c-0.049,0.061-0.034,0.148-0.086,0.207c-0.024,0.016-0.031,0.038-0.02,0.065c-0.033,0.078-0.029,0.169-0.092,0.235l0.002-0.003 c-0.092,0.079,0.001,0.228-0.114,0.299l0.006-0.009c-0.041,0.066-0.033,0.153-0.089,0.214c-0.096,0.076-0.005,0.223-0.111,0.296 l0.004-0.007c-0.048,0.061-0.033,0.149-0.087,0.208c-0.024,0.015-0.03,0.036-0.019,0.062c-0.031,0.079-0.027,0.172-0.092,0.237 l0.002-0.004c-0.09,0.08,0.002,0.23-0.114,0.3l0.006-0.009c-0.04,0.067-0.031,0.154-0.089,0.214v-0.001 c-0.095,0.077-0.003,0.225-0.111,0.297l0.004-0.008c-0.047,0.063-0.032,0.151-0.087,0.21c-0.024,0.014-0.03,0.033-0.018,0.059 c-0.03,0.08-0.026,0.174-0.095,0.239l0.003-0.005c-0.051,0.059-0.036,0.145-0.085,0.205c-0.025,0.018-0.032,0.041-0.021,0.07 c-0.036,0.075-0.03,0.166-0.091,0.231l0.001-0.003c-0.093,0.079-0.002,0.228-0.112,0.299l0.005-0.008 c-0.044,0.065-0.034,0.152-0.089,0.212v0.002c-0.099,0.075-0.007,0.222-0.11,0.295l0.003-0.007 c-0.05,0.062-0.035,0.147-0.086,0.207c-0.025,0.017-0.031,0.039-0.021,0.066c-0.033,0.077-0.028,0.169-0.092,0.234l0.002-0.003 c-0.091,0.08,0,0.228-0.113,0.299l0.006-0.008c-0.043,0.065-0.033,0.152-0.089,0.213c-0.097,0.076-0.006,0.223-0.11,0.296 l0.003-0.007c-0.048,0.061-0.034,0.149-0.086,0.208c-0.025,0.015-0.032,0.036-0.021,0.062c-0.031,0.079-0.027,0.172-0.092,0.237 l0.002-0.004c-0.09,0.081,0.002,0.23-0.114,0.3l0.006-0.009c-0.04,0.067-0.03,0.154-0.089,0.214v-0.001 c-0.095,0.077-0.003,0.225-0.11,0.297l0.004-0.007c-0.047,0.062-0.033,0.15-0.087,0.209c-0.025,0.014-0.031,0.033-0.019,0.059 c-0.03,0.08-0.026,0.174-0.094,0.24l0.003-0.006c-0.052,0.059-0.038,0.145-0.085,0.205c-0.025,0.018-0.033,0.041-0.022,0.07 c-0.035,0.075-0.029,0.166-0.09,0.231v-0.002c-0.093,0.079-0.002,0.226-0.111,0.299l0.005-0.009 c-0.045,0.064-0.032,0.152-0.088,0.211c-0.024,0.013-0.03,0.032-0.018,0.056c-0.028,0.082-0.024,0.176-0.094,0.242l0.003-0.006 c-0.05,0.06-0.036,0.146-0.086,0.206c-0.026,0.017-0.032,0.039-0.021,0.066c-0.032,0.077-0.028,0.169-0.091,0.234l0.001-0.002 c-0.092,0.079,0,0.227-0.113,0.299l0.007-0.009c-0.043,0.065-0.034,0.152-0.089,0.213v0.001c-0.099,0.076-0.007,0.222-0.111,0.295 l0.004-0.007c-0.049,0.061-0.035,0.149-0.087,0.208c-0.025,0.016-0.031,0.037-0.02,0.063c-0.031,0.079-0.027,0.171-0.093,0.237 l0.002-0.004c-0.09,0.08,0.002,0.229-0.113,0.3l0.007-0.01c-0.041,0.067-0.032,0.154-0.089,0.214 c-0.097,0.077-0.005,0.224-0.112,0.296l0.005-0.007c-0.048,0.062-0.034,0.15-0.087,0.209c-0.025,0.015-0.031,0.035-0.02,0.061 c-0.03,0.079-0.025,0.173-0.094,0.238l0.003-0.006c-0.051,0.059-0.038,0.145-0.085,0.205c-0.024,0.018-0.032,0.042-0.021,0.071 c-0.037,0.074-0.031,0.165-0.092,0.23v-0.002c-0.093,0.079-0.002,0.226-0.11,0.299l0.005-0.008 c-0.046,0.063-0.033,0.151-0.088,0.21c-0.025,0.013-0.031,0.033-0.018,0.057c-0.028,0.082-0.025,0.175-0.095,0.241l0.003-0.006 c-0.05,0.06-0.036,0.146-0.085,0.206c-0.024,0.017-0.032,0.04-0.021,0.068c-0.035,0.076-0.029,0.168-0.092,0.231l0.002-0.002 c-0.094,0.079-0.002,0.227-0.113,0.299l0.005-0.009c-0.043,0.065-0.034,0.153-0.089,0.213v0.001 c-0.099,0.076-0.006,0.222-0.111,0.295l0.004-0.006c-0.049,0.061-0.035,0.148-0.087,0.207c-0.024,0.016-0.031,0.037-0.019,0.064 c-0.032,0.078-0.028,0.17-0.092,0.236v-0.004c-0.09,0.08,0.003,0.229-0.112,0.3l0.006-0.01c-0.041,0.067-0.032,0.154-0.089,0.214 c-0.096,0.077-0.005,0.224-0.111,0.297l0.004-0.008c-0.048,0.062-0.034,0.15-0.087,0.209c-0.024,0.015-0.031,0.035-0.019,0.061 c-0.03,0.08-0.027,0.172-0.094,0.238l0.002-0.005c-0.052,0.058-0.036,0.144-0.085,0.204c-0.024,0.018-0.031,0.042-0.021,0.071 c-0.037,0.074-0.031,0.165-0.091,0.23l0.001-0.001c-0.094,0.078-0.003,0.225-0.112,0.298l0.005-0.008 c-0.046,0.063-0.032,0.151-0.088,0.21c-0.025,0.014-0.031,0.033-0.017,0.058c-0.029,0.081-0.026,0.175-0.096,0.24l0.003-0.006 c-0.05,0.06-0.035,0.146-0.085,0.206c-0.024,0.018-0.031,0.04-0.021,0.069c-0.035,0.075-0.03,0.167-0.091,0.232l0.001-0.003 c-0.093,0.079-0.001,0.227-0.113,0.299l0.006-0.009c-0.044,0.066-0.035,0.152-0.089,0.213v0.002 c-0.099,0.075-0.007,0.222-0.112,0.294l0.004-0.006c-0.049,0.06-0.034,0.147-0.086,0.207c-0.024,0.016-0.031,0.038-0.02,0.065 c-0.033,0.078-0.028,0.17-0.092,0.235l0.002-0.004c-0.091,0.08,0.001,0.229-0.114,0.3l0.006-0.009 c-0.041,0.065-0.033,0.153-0.088,0.213l-0.001,0.001c-0.096,0.076-0.004,0.223-0.111,0.296l0.004-0.007 c-0.048,0.061-0.033,0.149-0.087,0.208c-0.024,0.015-0.03,0.036-0.019,0.062c-0.031,0.079-0.027,0.172-0.093,0.237l0.002-0.005 c-0.088,0.081,0.003,0.23-0.113,0.301l0.006-0.009c-0.04,0.067-0.031,0.154-0.089,0.213v-0.001 c-0.094,0.078-0.003,0.225-0.111,0.298l0.004-0.008c-0.047,0.063-0.032,0.151-0.087,0.21c-0.024,0.013-0.03,0.033-0.018,0.058 c-0.029,0.081-0.026,0.174-0.094,0.24l0.002-0.005c-0.05,0.059-0.036,0.145-0.085,0.205c-0.025,0.018-0.032,0.041-0.021,0.069 c-0.035,0.075-0.028,0.167-0.091,0.232l0.001-0.003c-0.093,0.079-0.001,0.227-0.112,0.299l0.005-0.008 c-0.044,0.065-0.034,0.152-0.089,0.212v0.002c-0.099,0.075-0.007,0.221-0.11,0.295l0.003-0.007 c-0.049,0.061-0.035,0.148-0.086,0.207c-0.025,0.017-0.032,0.038-0.021,0.065c-0.033,0.078-0.027,0.17-0.091,0.235l0.001-0.003 c-0.091,0.079,0.001,0.228-0.113,0.299l0.006-0.009c-0.041,0.066-0.033,0.153-0.089,0.214c-0.097,0.076-0.006,0.223-0.11,0.296 l0.004-0.007c-0.049,0.061-0.035,0.149-0.088,0.208c-0.025,0.015-0.031,0.036-0.019,0.062c-0.032,0.079-0.027,0.172-0.093,0.237 l0.002-0.004c-0.09,0.08,0.002,0.23-0.114,0.3l0.007-0.009c-0.041,0.067-0.031,0.154-0.09,0.214l0.001-0.001 c-0.096,0.077-0.004,0.225-0.111,0.297l0.004-0.008c-0.047,0.063-0.033,0.151-0.087,0.21c-0.025,0.014-0.031,0.033-0.019,0.059 c-0.029,0.08-0.025,0.174-0.094,0.239l0.003-0.005c-0.051,0.059-0.037,0.145-0.086,0.205c-0.025,0.019-0.032,0.041-0.021,0.07 c-0.034,0.075-0.029,0.166-0.09,0.231v-0.002c-0.093,0.078-0.001,0.226-0.111,0.298l0.005-0.008 c-0.045,0.064-0.031,0.152-0.088,0.211c-0.024,0.013-0.03,0.032-0.017,0.056c-0.028,0.082-0.025,0.176-0.096,0.242l0.004-0.007 c-0.05,0.061-0.036,0.147-0.086,0.207c-0.025,0.017-0.032,0.039-0.021,0.066c-0.032,0.077-0.027,0.169-0.091,0.234l0.001-0.003 c-0.091,0.08,0,0.228-0.111,0.3l0.005-0.009c-0.043,0.065-0.033,0.152-0.089,0.213c-0.098,0.076-0.006,0.223-0.111,0.296 l0.004-0.007c-0.049,0.061-0.035,0.149-0.087,0.208c-0.025,0.016-0.031,0.037-0.019,0.063c-0.032,0.079-0.028,0.171-0.094,0.236 l0.002-0.004c-0.089,0.081,0.002,0.23-0.112,0.301l0.006-0.01c-0.041,0.067-0.032,0.154-0.09,0.214l0.001-0.001 c-0.097,0.078-0.004,0.225-0.112,0.297l0.005-0.007c-0.048,0.062-0.033,0.15-0.088,0.209c-0.025,0.014-0.031,0.033-0.018,0.059 c-0.029,0.08-0.026,0.174-0.095,0.24l0.003-0.006c-0.051,0.059-0.037,0.145-0.085,0.205c-0.024,0.018-0.031,0.041-0.021,0.07 c-0.035,0.075-0.03,0.166-0.09,0.231l0.001-0.002c-0.095,0.079-0.003,0.226-0.112,0.299l0.005-0.009 c-0.046,0.064-0.032,0.152-0.088,0.211c-0.025,0.013-0.031,0.032-0.017,0.057c-0.029,0.081-0.026,0.175-0.096,0.241l0.003-0.006 c-0.05,0.06-0.035,0.146-0.086,0.206c-0.024,0.016-0.031,0.038-0.02,0.066c-0.034,0.077-0.029,0.169-0.092,0.234l0.002-0.002 c-0.094,0.079-0.001,0.227-0.113,0.299l0.005-0.009c-0.042,0.065-0.034,0.152-0.088,0.213l-0.001,0.001 c-0.097,0.076-0.006,0.222-0.111,0.295l0.004-0.007c-0.049,0.061-0.035,0.149-0.087,0.208c-0.024,0.016-0.03,0.037-0.019,0.064 c-0.032,0.078-0.028,0.17-0.092,0.236l0.001-0.004c-0.091,0.08,0.002,0.229-0.113,0.3l0.006-0.01 c-0.041,0.067-0.032,0.154-0.089,0.214c-0.096,0.077-0.004,0.224-0.112,0.296l0.005-0.007c-0.047,0.062-0.033,0.15-0.087,0.209 c-0.024,0.015-0.03,0.035-0.019,0.061c-0.03,0.079-0.026,0.173-0.093,0.238l0.002-0.005c-0.052,0.058-0.037,0.144-0.085,0.204 c-0.025,0.018-0.032,0.042-0.021,0.071c-0.037,0.074-0.031,0.165-0.091,0.23l0.001-0.001c-0.094,0.078-0.003,0.225-0.112,0.298 l0.005-0.008c-0.046,0.063-0.031,0.151-0.088,0.21c-0.024,0.014-0.029,0.033-0.017,0.057c-0.029,0.082-0.026,0.176-0.095,0.241 l0.003-0.006c-0.051,0.06-0.036,0.146-0.085,0.206c-0.025,0.017-0.032,0.04-0.021,0.069c-0.035,0.075-0.029,0.167-0.091,0.231 l0.001-0.002c-0.092,0.079-0.001,0.227-0.113,0.299l0.006-0.009c-0.044,0.065-0.033,0.153-0.089,0.213l-0.001,0.001 c-0.097,0.076-0.006,0.222-0.109,0.295l0.003-0.006c-0.05,0.06-0.035,0.148-0.086,0.207c-0.025,0.016-0.032,0.038-0.021,0.065 c-0.033,0.077-0.028,0.17-0.092,0.235l0.002-0.004c-0.091,0.08,0.001,0.229-0.113,0.3l0.005-0.009 c-0.041,0.066-0.031,0.153-0.089,0.213c-0.096,0.077-0.004,0.224-0.111,0.297l0.005-0.008c-0.049,0.062-0.033,0.15-0.087,0.209 c-0.025,0.015-0.031,0.035-0.02,0.061c-0.03,0.08-0.027,0.172-0.093,0.238l0.003-0.005c-0.053,0.058-0.038,0.144-0.086,0.204 c-0.025,0.018-0.032,0.042-0.021,0.071c-0.037,0.074-0.03,0.165-0.091,0.23l0.001-0.001c-0.094,0.078-0.003,0.225-0.111,0.298 l0.005-0.008c-0.048,0.063-0.032,0.151-0.089,0.21c-0.024,0.014-0.029,0.033-0.017,0.058c-0.029,0.081-0.026,0.174-0.094,0.24 l0.003-0.005c-0.051,0.059-0.037,0.145-0.086,0.205c-0.025,0.018-0.032,0.04-0.021,0.069c-0.035,0.075-0.028,0.167-0.091,0.232 l0.001-0.003c-0.093,0.079-0.001,0.227-0.113,0.299l0.007-0.009c-0.044,0.066-0.035,0.152-0.089,0.213v0.002 c-0.1,0.075-0.008,0.222-0.111,0.294l0.003-0.006c-0.049,0.061-0.035,0.148-0.086,0.207c-0.025,0.016-0.031,0.038-0.021,0.065 c-0.032,0.078-0.027,0.17-0.092,0.235l0.002-0.004c-0.091,0.08,0.001,0.229-0.113,0.3l0.006-0.009 c-0.041,0.066-0.032,0.153-0.088,0.213v0.001c-0.098,0.076-0.006,0.223-0.112,0.296l0.004-0.008 C965.841,68.19,965.832,68.252,965.762,68.256"/>
      <path clip-path="url(#SVGID_2_)" fill="#099C00" d="M930.915,133.255c-0.03,0.005-0.06,0.012-0.089,0.022 c-0.064-0.151,0.042-0.249,0.122-0.344c0.417-0.493,0.846-0.975,1.259-1.471c0.402-0.482,0.787-0.979,1.186-1.465 c0.231-0.281,0.478-0.549,0.712-0.828c0.255-0.305,0.508-0.61,0.752-0.923c0.183-0.236,0.395-0.445,0.577-0.683 c0.392-0.512,0.839-0.981,1.252-1.477c0.413-0.495,0.807-1.006,1.22-1.501c0.18-0.216,0.368-0.424,0.544-0.645 c0.403-0.504,0.843-0.978,1.256-1.474c0.402-0.483,0.785-0.981,1.185-1.466c0.242-0.293,0.503-0.571,0.748-0.863 c0.244-0.292,0.478-0.591,0.715-0.889c0.186-0.233,0.393-0.446,0.577-0.683c0.395-0.509,0.84-0.979,1.253-1.475 c0.403-0.483,0.787-0.98,1.186-1.465c0.232-0.281,0.478-0.55,0.712-0.829c0.255-0.304,0.509-0.61,0.752-0.923 c0.183-0.235,0.395-0.444,0.577-0.683c0.392-0.511,0.839-0.981,1.252-1.476c0.413-0.496,0.807-1.006,1.22-1.502 c0.18-0.216,0.369-0.424,0.545-0.645c0.402-0.504,0.842-0.978,1.255-1.474c0.402-0.482,0.786-0.98,1.185-1.465 c0.242-0.294,0.503-0.572,0.748-0.864c0.244-0.292,0.479-0.59,0.715-0.888c0.186-0.234,0.393-0.447,0.577-0.683 c0.395-0.51,0.84-0.98,1.253-1.476c0.403-0.482,0.788-0.979,1.187-1.465c0.231-0.281,0.477-0.55,0.711-0.829 c0.255-0.304,0.509-0.609,0.752-0.922c0.183-0.236,0.395-0.445,0.577-0.683c0.392-0.512,0.839-0.981,1.252-1.477 c0.412-0.495,0.808-1.006,1.22-1.502c0.179-0.216,0.369-0.423,0.545-0.644c0.402-0.505,0.842-0.979,1.255-1.474 c0.402-0.483,0.786-0.981,1.186-1.466c0.241-0.294,0.503-0.572,0.747-0.864c0.244-0.291,0.48-0.59,0.717-0.888 c0.185-0.234,0.393-0.446,0.575-0.683c0.396-0.51,0.841-0.98,1.255-1.476c0.401-0.482,0.786-0.979,1.186-1.464 c0.231-0.281,0.477-0.55,0.711-0.83c0.255-0.304,0.51-0.609,0.753-0.922c0.182-0.236,0.395-0.445,0.577-0.683 c0.392-0.511,0.838-0.981,1.251-1.477c0.413-0.495,0.808-1.005,1.22-1.501c0.18-0.217,0.369-0.424,0.545-0.645 c0.401-0.505,0.843-0.978,1.255-1.474c0.402-0.483,0.786-0.981,1.186-1.465c0.243-0.294,0.504-0.573,0.748-0.865 c0.244-0.291,0.479-0.589,0.716-0.888c0.185-0.233,0.394-0.446,0.577-0.683c0.394-0.509,0.839-0.98,1.253-1.475 c0.402-0.483,0.788-0.979,1.186-1.465c0.232-0.281,0.479-0.55,0.713-0.829c0.254-0.304,0.511-0.608,0.751-0.923 c0.171-0.224,0.373-0.419,0.546-0.644c0.474-0.616,0.99-1.199,1.489-1.795c0.058-0.067,0.129-0.104,0.216-0.109 c0.066-0.005,0.133-0.006,0.199-0.006c1.197-0.001,2.396-0.001,3.593,0c0.115,0,0.235-0.015,0.324,0.087 c-0.006,0.032-0.011,0.064-0.014,0.096c-0.053,0.015-0.084,0.05-0.094,0.103c-0.055,0.015-0.085,0.051-0.094,0.106 c-0.055,0.014-0.086,0.05-0.096,0.105c-0.054,0.014-0.085,0.049-0.096,0.103c-0.147,0.091-0.253,0.219-0.33,0.371 c-0.053,0.016-0.083,0.052-0.092,0.105c-0.053,0.016-0.084,0.052-0.095,0.105c-0.054,0.016-0.084,0.051-0.095,0.105 c-0.054,0.015-0.086,0.05-0.095,0.105c-0.054,0.015-0.085,0.05-0.095,0.105c-0.054,0.014-0.085,0.049-0.098,0.102 c-0.143,0.095-0.252,0.22-0.328,0.373c-0.055,0.015-0.084,0.051-0.094,0.104c-0.053,0.016-0.083,0.052-0.094,0.106 c-0.053,0.015-0.084,0.051-0.094,0.105c-0.055,0.015-0.086,0.05-0.096,0.105c-0.054,0.014-0.086,0.049-0.096,0.104 c-0.146,0.09-0.251,0.22-0.331,0.37c-0.052,0.017-0.082,0.052-0.093,0.105c-0.052,0.016-0.082,0.052-0.093,0.105 c-0.054,0.016-0.084,0.052-0.095,0.106c-0.054,0.014-0.086,0.05-0.096,0.104c-0.054,0.015-0.085,0.051-0.094,0.105 c-0.055,0.014-0.086,0.049-0.096,0.104c-0.147,0.091-0.252,0.219-0.331,0.371c-0.053,0.016-0.082,0.052-0.091,0.106 c-0.054,0.015-0.084,0.051-0.096,0.104c-0.053,0.015-0.085,0.051-0.095,0.105c-0.054,0.015-0.085,0.05-0.095,0.105 c-0.055,0.014-0.085,0.05-0.095,0.105c-0.053,0.014-0.085,0.049-0.097,0.103c-0.145,0.093-0.253,0.218-0.33,0.372 c-0.053,0.015-0.082,0.051-0.092,0.104c-0.053,0.016-0.083,0.053-0.094,0.106c-0.054,0.015-0.085,0.05-0.096,0.105 c-0.054,0.015-0.085,0.05-0.094,0.105c-0.054,0.014-0.086,0.049-0.095,0.104c-0.053,0.015-0.085,0.049-0.098,0.102 c-0.142,0.097-0.253,0.219-0.328,0.373c-0.054,0.016-0.083,0.051-0.094,0.105c-0.053,0.016-0.084,0.051-0.094,0.105 c-0.054,0.015-0.085,0.051-0.095,0.105c-0.054,0.015-0.085,0.051-0.094,0.105c-0.055,0.015-0.086,0.05-0.097,0.104 c-0.052,0.015-0.084,0.049-0.098,0.101c-0.106,0.066-0.185,0.154-0.233,0.27c-0.052,0.016-0.082,0.051-0.092,0.105 c-0.053,0.016-0.084,0.051-0.095,0.104c-0.053,0.016-0.084,0.052-0.094,0.106c-0.055,0.015-0.085,0.05-0.096,0.105 c-0.054,0.014-0.085,0.05-0.095,0.105c-0.053,0.014-0.085,0.049-0.095,0.103c-0.147,0.092-0.253,0.219-0.331,0.371 c-0.053,0.016-0.082,0.052-0.092,0.106c-0.054,0.016-0.083,0.052-0.095,0.105c-0.053,0.015-0.085,0.05-0.095,0.105 c-0.054,0.014-0.085,0.05-0.095,0.104c-0.054,0.015-0.085,0.05-0.095,0.105c-0.054,0.014-0.085,0.049-0.097,0.103 c-0.143,0.095-0.255,0.217-0.329,0.373c-0.053,0.015-0.083,0.05-0.093,0.104c-0.053,0.016-0.083,0.052-0.094,0.104 c-0.054,0.015-0.085,0.051-0.095,0.105c-0.055,0.015-0.085,0.05-0.096,0.105c-0.054,0.015-0.085,0.05-0.095,0.105 c-0.052,0.014-0.084,0.049-0.098,0.101c-0.141,0.097-0.252,0.219-0.327,0.374c-0.053,0.015-0.083,0.051-0.093,0.105 c-0.054,0.015-0.084,0.051-0.095,0.104c-0.054,0.015-0.085,0.05-0.095,0.105c-0.054,0.015-0.085,0.05-0.094,0.105 c-0.056,0.014-0.086,0.049-0.097,0.103c-0.147,0.091-0.252,0.22-0.33,0.372c-0.053,0.015-0.082,0.051-0.093,0.104 c-0.053,0.016-0.084,0.052-0.095,0.105c-0.053,0.016-0.084,0.051-0.095,0.104c-0.054,0.015-0.084,0.051-0.094,0.105 c-0.055,0.015-0.085,0.05-0.096,0.105c-0.053,0.014-0.085,0.05-0.096,0.103c-0.146,0.092-0.252,0.22-0.33,0.372 c-0.053,0.016-0.082,0.052-0.092,0.105c-0.053,0.016-0.084,0.052-0.095,0.105c-0.054,0.015-0.084,0.051-0.095,0.104 c-0.054,0.015-0.085,0.05-0.095,0.105c-0.054,0.015-0.085,0.05-0.095,0.105c-0.054,0.014-0.085,0.049-0.098,0.102 c-0.143,0.095-0.252,0.22-0.329,0.373c-0.053,0.015-0.082,0.051-0.092,0.105c-0.053,0.015-0.084,0.051-0.094,0.105 c-0.054,0.015-0.085,0.051-0.095,0.104c-0.054,0.014-0.085,0.05-0.095,0.104c-0.055,0.015-0.087,0.05-0.096,0.104 c-0.147,0.09-0.252,0.219-0.332,0.37c-0.052,0.016-0.082,0.051-0.092,0.104c-0.053,0.017-0.083,0.053-0.094,0.106 c-0.053,0.016-0.084,0.052-0.094,0.105c-0.055,0.015-0.086,0.051-0.096,0.105c-0.054,0.015-0.085,0.05-0.095,0.105 c-0.054,0.015-0.085,0.05-0.096,0.104c-0.147,0.09-0.252,0.219-0.331,0.371c-0.053,0.016-0.081,0.052-0.091,0.105 c-0.054,0.016-0.085,0.051-0.096,0.105c-0.053,0.015-0.084,0.05-0.095,0.105c-0.053,0.015-0.084,0.05-0.094,0.105 c-0.056,0.014-0.086,0.05-0.096,0.105c-0.053,0.014-0.085,0.049-0.097,0.102c-0.145,0.093-0.252,0.219-0.329,0.373 c-0.053,0.015-0.083,0.051-0.093,0.104c-0.053,0.016-0.083,0.052-0.094,0.106c-0.054,0.015-0.084,0.05-0.096,0.104 c-0.054,0.015-0.085,0.051-0.094,0.105c-0.054,0.015-0.086,0.05-0.095,0.105c-0.053,0.015-0.085,0.049-0.098,0.102 c-0.142,0.096-0.254,0.219-0.328,0.373c-0.054,0.015-0.083,0.051-0.092,0.105c-0.055,0.016-0.085,0.051-0.096,0.105 c-0.053,0.015-0.084,0.051-0.094,0.105c-0.054,0.015-0.085,0.05-0.095,0.105c-0.055,0.014-0.086,0.049-0.097,0.104 c-0.052,0.014-0.084,0.049-0.098,0.101c-0.106,0.066-0.185,0.154-0.232,0.27c-0.053,0.016-0.083,0.051-0.093,0.104 c-0.052,0.016-0.084,0.052-0.095,0.105c-0.053,0.016-0.083,0.052-0.094,0.106c-0.054,0.015-0.085,0.05-0.095,0.105 c-0.055,0.014-0.086,0.05-0.095,0.104c-0.054,0.015-0.085,0.05-0.096,0.104c-0.146,0.092-0.253,0.219-0.331,0.371 c-0.053,0.016-0.082,0.052-0.092,0.105c-0.053,0.016-0.083,0.052-0.095,0.106c-0.053,0.015-0.084,0.05-0.095,0.104 c-0.054,0.015-0.085,0.05-0.095,0.105c-0.054,0.015-0.085,0.05-0.094,0.105c-0.054,0.015-0.085,0.049-0.098,0.103 c-0.143,0.095-0.255,0.217-0.329,0.372c-0.053,0.015-0.083,0.051-0.093,0.105c-0.053,0.016-0.083,0.052-0.094,0.105 c-0.053,0.015-0.084,0.051-0.095,0.105c-0.055,0.014-0.085,0.05-0.096,0.105c-0.054,0.014-0.085,0.049-0.094,0.104 c-0.053,0.015-0.085,0.05-0.098,0.102c-0.108,0.064-0.186,0.154-0.234,0.269c-0.052,0.016-0.082,0.051-0.092,0.104 c-0.052,0.017-0.083,0.052-0.095,0.105c-0.054,0.016-0.083,0.052-0.095,0.105c-0.054,0.015-0.085,0.051-0.095,0.106 c-0.054,0.014-0.084,0.05-0.094,0.105c-0.054,0.014-0.086,0.049-0.096,0.103c-0.148,0.09-0.252,0.22-0.331,0.371 c-0.053,0.016-0.082,0.052-0.093,0.105c-0.052,0.016-0.083,0.052-0.095,0.105c-0.053,0.016-0.084,0.051-0.094,0.105 c-0.053,0.015-0.085,0.051-0.094,0.105c-0.055,0.015-0.087,0.05-0.096,0.105c-0.054,0.014-0.085,0.049-0.097,0.103 c-0.146,0.092-0.251,0.22-0.33,0.372c-0.053,0.015-0.082,0.051-0.092,0.105c-0.053,0.015-0.083,0.051-0.094,0.105 c-0.055,0.015-0.084,0.051-0.096,0.105c-0.054,0.015-0.085,0.05-0.095,0.105c-0.053,0.015-0.085,0.05-0.095,0.104 c-0.053,0.015-0.084,0.049-0.098,0.102c-0.142,0.096-0.252,0.22-0.328,0.373c-0.054,0.015-0.082,0.052-0.093,0.105 c-0.053,0.016-0.084,0.052-0.094,0.105c-0.054,0.016-0.084,0.051-0.095,0.106c-0.055,0.014-0.085,0.049-0.096,0.104 c-0.054,0.015-0.086,0.049-0.095,0.104c-0.147,0.091-0.252,0.22-0.331,0.371c-0.052,0.016-0.082,0.052-0.092,0.105 c-0.052,0.016-0.084,0.052-0.095,0.105c-0.054,0.016-0.083,0.051-0.094,0.105c-0.055,0.015-0.085,0.05-0.096,0.105 c-0.054,0.015-0.085,0.05-0.094,0.105c-0.054,0.014-0.085,0.049-0.096,0.104c-0.148,0.09-0.253,0.219-0.331,0.37 c-0.053,0.017-0.082,0.053-0.092,0.106c-0.053,0.016-0.083,0.051-0.095,0.105c-0.054,0.015-0.085,0.05-0.095,0.104 c-0.054,0.016-0.085,0.051-0.095,0.106c-0.054,0.015-0.085,0.05-0.095,0.105c-0.054,0.014-0.085,0.049-0.097,0.102 c-0.145,0.093-0.253,0.219-0.33,0.373c-0.053,0.015-0.082,0.05-0.092,0.104c-0.053,0.016-0.083,0.052-0.094,0.105 c-0.055,0.015-0.085,0.051-0.095,0.105c-0.055,0.015-0.086,0.05-0.096,0.105c-0.054,0.015-0.085,0.05-0.095,0.105 c-0.053,0.014-0.084,0.049-0.097,0.101c-0.143,0.097-0.252,0.221-0.329,0.374c-0.054,0.015-0.083,0.051-0.093,0.104 c-0.053,0.016-0.084,0.052-0.094,0.106c-0.054,0.015-0.085,0.051-0.095,0.105c-0.054,0.015-0.085,0.05-0.095,0.105 c-0.055,0.014-0.085,0.049-0.096,0.104c-0.053,0.014-0.085,0.049-0.099,0.101c-0.106,0.065-0.185,0.154-0.232,0.27 c-0.052,0.015-0.083,0.051-0.093,0.104c-0.052,0.016-0.083,0.052-0.094,0.106c-0.053,0.015-0.084,0.051-0.094,0.105 c-0.055,0.014-0.085,0.05-0.096,0.104c-0.054,0.015-0.085,0.05-0.095,0.105c-0.054,0.014-0.085,0.049-0.096,0.104 c-0.146,0.091-0.252,0.219-0.33,0.371c-0.053,0.016-0.083,0.052-0.092,0.105c-0.054,0.016-0.083,0.052-0.095,0.105 c-0.054,0.016-0.085,0.051-0.095,0.105c-0.054,0.015-0.086,0.05-0.095,0.105c-0.054,0.015-0.085,0.05-0.095,0.105 c-0.054,0.014-0.084,0.049-0.098,0.102c-0.142,0.096-0.255,0.218-0.329,0.373c-0.053,0.015-0.083,0.051-0.092,0.105 c-0.053,0.015-0.084,0.051-0.095,0.105c-0.053,0.015-0.084,0.05-0.094,0.105c-0.055,0.015-0.085,0.05-0.096,0.105 c-0.054,0.014-0.086,0.049-0.095,0.104c-0.053,0.015-0.084,0.049-0.098,0.101c-0.108,0.064-0.186,0.154-0.234,0.27 c-0.051,0.016-0.082,0.051-0.092,0.104c-0.052,0.016-0.083,0.052-0.094,0.105c-0.054,0.016-0.084,0.051-0.096,0.105 c-0.054,0.015-0.085,0.051-0.094,0.105c-0.054,0.015-0.085,0.051-0.095,0.105c-0.054,0.014-0.085,0.049-0.096,0.104 c-0.148,0.09-0.251,0.22-0.331,0.371c-0.053,0.016-0.082,0.052-0.093,0.105c-0.052,0.016-0.083,0.051-0.094,0.105 c-0.053,0.015-0.084,0.051-0.094,0.105c-0.054,0.015-0.085,0.051-0.095,0.105c-0.055,0.015-0.086,0.05-0.096,0.105 c-0.054,0.014-0.085,0.049-0.096,0.103c-0.147,0.092-0.252,0.219-0.33,0.372c-0.053,0.015-0.083,0.051-0.092,0.105 c-0.053,0.016-0.083,0.052-0.094,0.105c-0.054,0.015-0.085,0.05-0.095,0.105c-0.054,0.014-0.086,0.049-0.095,0.104 c-0.054,0.015-0.086,0.05-0.095,0.105c-0.053,0.014-0.085,0.049-0.097,0.102c-0.143,0.096-0.253,0.219-0.329,0.373 c-0.054,0.015-0.083,0.051-0.093,0.105c-0.053,0.016-0.083,0.051-0.094,0.105c-0.054,0.015-0.084,0.051-0.094,0.105 c-0.054,0.015-0.086,0.05-0.095,0.105c-0.054,0.015-0.085,0.05-0.095,0.104c-0.149,0.09-0.252,0.22-0.332,0.371 c-0.052,0.016-0.082,0.052-0.092,0.105c-0.052,0.016-0.083,0.051-0.094,0.105c-0.054,0.015-0.084,0.051-0.095,0.105 c-0.054,0.015-0.085,0.05-0.095,0.105c-0.054,0.014-0.085,0.05-0.094,0.105c-0.054,0.014-0.085,0.049-0.096,0.103 c-0.148,0.091-0.252,0.22-0.33,0.372c-0.053,0.015-0.083,0.051-0.092,0.105c-0.053,0.015-0.084,0.051-0.095,0.104 c-0.054,0.016-0.085,0.051-0.095,0.105c-0.054,0.015-0.085,0.051-0.094,0.105c-0.054,0.015-0.086,0.05-0.095,0.105 c-0.054,0.015-0.085,0.049-0.097,0.103c-0.145,0.093-0.253,0.219-0.329,0.372c-0.053,0.015-0.083,0.051-0.093,0.105 c-0.053,0.016-0.083,0.052-0.094,0.105c-0.053,0.015-0.084,0.051-0.094,0.105c-0.054,0.015-0.086,0.05-0.095,0.105 c-0.054,0.015-0.086,0.05-0.095,0.104c-0.053,0.015-0.085,0.05-0.098,0.102c-0.142,0.096-0.251,0.221-0.328,0.374 c-0.054,0.015-0.083,0.051-0.093,0.104c-0.053,0.016-0.084,0.052-0.094,0.106c-0.054,0.015-0.085,0.05-0.095,0.105 c-0.054,0.014-0.085,0.05-0.095,0.104c-0.053,0.015-0.085,0.05-0.095,0.104c-0.147,0.091-0.252,0.22-0.331,0.372 c-0.052,0.015-0.082,0.051-0.093,0.104c-0.052,0.016-0.082,0.052-0.093,0.105c-0.053,0.016-0.084,0.051-0.095,0.105 c-0.054,0.015-0.085,0.05-0.095,0.105c-0.054,0.015-0.085,0.05-0.095,0.105c-0.054,0.014-0.085,0.049-0.096,0.103 c-0.146,0.092-0.252,0.219-0.33,0.372c-0.053,0.016-0.082,0.052-0.092,0.105c-0.052,0.016-0.083,0.052-0.094,0.105 c-0.054,0.015-0.085,0.05-0.095,0.105c-0.054,0.015-0.085,0.05-0.095,0.105c-0.054,0.014-0.085,0.05-0.094,0.105 c-0.053,0.014-0.085,0.049-0.098,0.102c-0.142,0.095-0.254,0.217-0.328,0.373c-0.054,0.015-0.083,0.051-0.093,0.104 c-0.053,0.016-0.083,0.052-0.094,0.106c-0.054,0.015-0.085,0.05-0.095,0.105c-0.054,0.014-0.085,0.05-0.095,0.105 c-0.053,0.014-0.085,0.049-0.095,0.104c-0.052,0.015-0.084,0.049-0.098,0.101c-0.107,0.064-0.185,0.154-0.233,0.27 c-0.052,0.016-0.082,0.052-0.093,0.104c-0.052,0.017-0.083,0.053-0.094,0.106c-0.053,0.015-0.084,0.051-0.094,0.105 c-0.054,0.015-0.085,0.05-0.095,0.105c-0.054,0.015-0.085,0.051-0.095,0.105c-0.054,0.014-0.085,0.049-0.095,0.104 c-0.148,0.09-0.252,0.22-0.331,0.371c-0.053,0.016-0.082,0.051-0.092,0.104c-0.053,0.016-0.084,0.051-0.095,0.104 c-0.053,0.016-0.084,0.052-0.094,0.106c-0.054,0.015-0.085,0.05-0.095,0.105c-0.054,0.014-0.085,0.049-0.095,0.104 c-0.054,0.015-0.085,0.05-0.096,0.104c-0.145,0.093-0.253,0.218-0.33,0.371c-0.053,0.016-0.083,0.052-0.092,0.105 c-0.053,0.016-0.083,0.052-0.094,0.106c-0.054,0.015-0.085,0.05-0.095,0.104c-0.054,0.015-0.086,0.05-0.095,0.105 c-0.054,0.015-0.085,0.05-0.095,0.105c-0.053,0.014-0.085,0.049-0.097,0.102c-0.141,0.097-0.254,0.218-0.328,0.373 c-0.054,0.015-0.083,0.051-0.093,0.105c-0.053,0.015-0.084,0.051-0.095,0.105c-0.053,0.015-0.084,0.051-0.094,0.104 c-0.054,0.015-0.085,0.05-0.095,0.105c-0.054,0.014-0.085,0.049-0.095,0.104c-0.148,0.09-0.252,0.22-0.332,0.37 c-0.052,0.017-0.081,0.053-0.092,0.105c-0.052,0.017-0.083,0.052-0.094,0.105c-0.053,0.016-0.084,0.052-0.094,0.106 c-0.054,0.015-0.085,0.05-0.095,0.104c-0.054,0.014-0.085,0.05-0.095,0.105c-0.054,0.014-0.085,0.049-0.096,0.103 c-0.147,0.09-0.252,0.219-0.33,0.371c-0.053,0.016-0.082,0.052-0.092,0.105c-0.053,0.016-0.084,0.052-0.095,0.105 c-0.053,0.015-0.085,0.051-0.095,0.105c-0.054,0.015-0.084,0.051-0.094,0.104c-0.054,0.015-0.085,0.05-0.095,0.105 c-0.053,0.014-0.085,0.049-0.097,0.103c-0.143,0.094-0.253,0.218-0.329,0.372c-0.053,0.015-0.083,0.051-0.093,0.104 c-0.053,0.016-0.083,0.052-0.094,0.106c-0.053,0.015-0.084,0.051-0.094,0.105c-0.054,0.015-0.085,0.05-0.095,0.104 c-0.054,0.014-0.086,0.049-0.095,0.104c-0.053,0.015-0.085,0.049-0.098,0.102c-0.141,0.096-0.251,0.22-0.328,0.373 c-0.053,0.016-0.083,0.052-0.092,0.105c-0.053,0.016-0.084,0.052-0.094,0.106c-0.054,0.014-0.085,0.05-0.095,0.104 c-0.055,0.015-0.086,0.05-0.095,0.105c-0.054,0.015-0.086,0.049-0.096,0.104c-0.147,0.091-0.252,0.22-0.331,0.371 c-0.052,0.016-0.082,0.051-0.092,0.104c-0.053,0.017-0.083,0.053-0.094,0.106c-0.053,0.016-0.084,0.051-0.095,0.105 c-0.054,0.015-0.085,0.05-0.095,0.105c-0.054,0.014-0.085,0.05-0.094,0.105c-0.053,0.014-0.085,0.05-0.096,0.103 c-0.147,0.092-0.253,0.219-0.331,0.372c-0.052,0.015-0.082,0.052-0.091,0.105c-0.053,0.016-0.084,0.051-0.095,0.105 c-0.053,0.015-0.084,0.05-0.095,0.104c-0.054,0.015-0.085,0.05-0.095,0.105c-0.054,0.015-0.085,0.05-0.094,0.105 c-0.053,0.015-0.085,0.05-0.097,0.103c-0.143,0.095-0.254,0.218-0.329,0.372c-0.053,0.015-0.083,0.051-0.093,0.105 c-0.053,0.016-0.083,0.052-0.094,0.105c-0.054,0.015-0.085,0.051-0.095,0.105c-0.054,0.015-0.084,0.051-0.094,0.105 c-0.054,0.015-0.086,0.049-0.096,0.105c-0.052,0.014-0.084,0.049-0.098,0.101c-0.107,0.064-0.185,0.154-0.233,0.269 c-0.052,0.016-0.082,0.051-0.093,0.104c-0.052,0.017-0.082,0.052-0.094,0.105c-0.053,0.016-0.083,0.052-0.094,0.106 c-0.053,0.015-0.084,0.05-0.094,0.105c-0.054,0.015-0.085,0.05-0.095,0.105c-0.054,0.014-0.086,0.049-0.096,0.103 c-0.148,0.091-0.252,0.22-0.331,0.372c-0.052,0.015-0.082,0.051-0.092,0.104c-0.053,0.016-0.084,0.052-0.095,0.105 c-0.053,0.016-0.084,0.051-0.094,0.106c-0.054,0.015-0.085,0.05-0.095,0.105c-0.054,0.014-0.085,0.049-0.095,0.104 c-0.053,0.014-0.084,0.05-0.096,0.103c-0.145,0.093-0.252,0.219-0.33,0.372c-0.053,0.015-0.082,0.052-0.092,0.105 c-0.053,0.016-0.083,0.052-0.094,0.106c-0.053,0.015-0.084,0.05-0.095,0.104c-0.054,0.015-0.085,0.05-0.095,0.105 c-0.054,0.015-0.085,0.05-0.094,0.105c-0.053,0.014-0.085,0.049-0.098,0.102c-0.141,0.096-0.254,0.217-0.328,0.373 c-0.053,0.015-0.083,0.051-0.093,0.105c-0.053,0.015-0.084,0.051-0.094,0.105c-0.054,0.015-0.084,0.051-0.095,0.105 c-0.054,0.014-0.085,0.049-0.095,0.104c-0.053,0.015-0.085,0.05-0.095,0.105c-0.146,0.091-0.253,0.218-0.33,0.371 c-0.053,0.016-0.083,0.051-0.093,0.104c-0.053,0.016-0.084,0.052-0.095,0.105c-0.053,0.016-0.084,0.052-0.094,0.105 c-0.054,0.015-0.085,0.051-0.095,0.105c-0.054,0.015-0.085,0.05-0.094,0.105c-0.054,0.014-0.086,0.05-0.097,0.104 c-0.147,0.09-0.251,0.219-0.33,0.371c-0.053,0.016-0.082,0.052-0.092,0.105c-0.053,0.016-0.083,0.051-0.095,0.105 c-0.053,0.015-0.084,0.051-0.094,0.105c-0.054,0.015-0.085,0.05-0.095,0.105c-0.054,0.015-0.085,0.05-0.095,0.105 c-0.053,0.014-0.084,0.049-0.096,0.102c-0.144,0.095-0.254,0.219-0.33,0.373c-0.053,0.015-0.083,0.051-0.092,0.104 c-0.053,0.016-0.084,0.052-0.094,0.106c-0.054,0.015-0.085,0.051-0.095,0.105c-0.054,0.014-0.085,0.05-0.095,0.104 c-0.054,0.015-0.085,0.05-0.095,0.105c-0.053,0.014-0.084,0.049-0.098,0.102c-0.139,0.098-0.253,0.218-0.328,0.373 c-0.053,0.015-0.083,0.051-0.092,0.105c-0.053,0.016-0.083,0.052-0.094,0.105c-0.054,0.015-0.085,0.051-0.095,0.105 c-0.054,0.015-0.085,0.05-0.095,0.105c-0.054,0.014-0.086,0.049-0.095,0.104c-0.148,0.091-0.252,0.219-0.331,0.371 c-0.053,0.016-0.082,0.052-0.092,0.105c-0.053,0.016-0.084,0.052-0.095,0.105c-0.053,0.015-0.084,0.051-0.094,0.105 c-0.054,0.014-0.085,0.05-0.095,0.104c-0.055,0.015-0.086,0.05-0.095,0.106c-0.053,0.014-0.084,0.049-0.096,0.103 c-0.146,0.091-0.253,0.219-0.33,0.371c-0.053,0.016-0.082,0.052-0.092,0.106c-0.053,0.015-0.084,0.051-0.095,0.105 c-0.053,0.015-0.084,0.05-0.094,0.104c-0.054,0.015-0.085,0.051-0.095,0.106c-0.053,0.014-0.085,0.049-0.095,0.104 c-0.053,0.015-0.085,0.049-0.097,0.102c-0.142,0.096-0.254,0.218-0.329,0.373c-0.053,0.015-0.083,0.051-0.092,0.105 c-0.053,0.016-0.084,0.051-0.095,0.105c-0.053,0.015-0.084,0.051-0.094,0.105c-0.054,0.015-0.085,0.05-0.095,0.105 c-0.054,0.014-0.086,0.049-0.095,0.104c-0.053,0.015-0.084,0.05-0.098,0.102c-0.107,0.064-0.185,0.154-0.234,0.269 c-0.052,0.016-0.082,0.051-0.092,0.104c-0.052,0.017-0.083,0.052-0.095,0.105c-0.053,0.016-0.083,0.052-0.093,0.106 c-0.054,0.015-0.085,0.05-0.095,0.105c-0.054,0.014-0.085,0.05-0.095,0.105c-0.054,0.014-0.085,0.049-0.096,0.103 c-0.148,0.09-0.251,0.22-0.331,0.371c-0.052,0.016-0.082,0.052-0.092,0.105c-0.052,0.016-0.083,0.052-0.094,0.106 c-0.053,0.015-0.084,0.05-0.095,0.104c-0.053,0.015-0.084,0.051-0.094,0.105c-0.054,0.015-0.086,0.05-0.095,0.105 c-0.054,0.014-0.085,0.049-0.096,0.103C931.099,132.978,930.991,133.102,930.915,133.255"/>
      <path clip-path="url(#SVGID_2_)" fill="#099C00" d="M932.9,78.542c0.082-0.164,0.183-0.312,0.305-0.452 c0.328-0.372,0.638-0.76,0.958-1.139c0.236-0.278,0.48-0.549,0.714-0.829c0.457-0.545,0.909-1.094,1.364-1.641 c0.191-0.229,0.397-0.443,0.578-0.683c0.249-0.329,0.569-0.606,0.81-0.94c0.253-0.352,0.583-0.632,0.83-0.99 c0.196-0.284,0.462-0.516,0.681-0.79c0.455-0.568,0.963-1.093,1.428-1.654c0.413-0.497,0.841-0.98,1.267-1.465 c0.491-0.56,0.952-1.146,1.435-1.713c0.3-0.353,0.621-0.689,0.925-1.04c0.313-0.362,0.618-0.733,0.927-1.101 c0.032-0.038,0.062-0.078,0.096-0.114c0.356-0.393,0.739-0.766,1.063-1.183c0.306-0.393,0.697-0.712,0.965-1.135 c0.026-0.042,0.065-0.076,0.1-0.112c0.478-0.483,0.89-1.026,1.346-1.527c0.324-0.356,0.646-0.715,0.948-1.086 c0.357-0.437,0.793-0.803,1.107-1.275c0.045-0.069,0.112-0.123,0.17-0.183c0.476-0.485,0.906-1.01,1.343-1.53 c0.33-0.394,0.691-0.762,1.031-1.147c0.416-0.471,0.826-0.948,1.238-1.423c0.033-0.038,0.067-0.074,0.101-0.111 c0.392-0.428,0.797-0.845,1.174-1.285c0.528-0.617,1.073-1.218,1.613-1.825c0.287-0.322,0.612-0.615,0.862-0.961 c0.323-0.447,0.785-0.767,1.071-1.241c0.017-0.028,0.043-0.051,0.068-0.073c0.487-0.43,0.883-0.948,1.306-1.435 c0.401-0.462,0.873-0.864,1.214-1.379c0.01-0.014,0.021-0.026,0.032-0.038c0.429-0.463,0.879-0.906,1.277-1.393 c0.441-0.54,0.981-0.99,1.384-1.562c0.01-0.014,0.021-0.026,0.033-0.037c0.435-0.388,0.787-0.854,1.175-1.285 c0.531-0.591,1.102-1.149,1.591-1.777c0.011-0.013,0.021-0.026,0.033-0.037c0.521-0.467,0.926-1.042,1.425-1.529 c0.499-0.488,0.937-1.032,1.412-1.541c0.316-0.338,0.649-0.666,0.942-1.024c0.421-0.516,0.927-0.953,1.35-1.461 c0.331-0.398,0.719-0.739,1.045-1.134c0.424-0.514,0.931-0.951,1.352-1.461c0.372-0.451,0.812-0.832,1.186-1.275 c0.537-0.635,1.164-1.187,1.702-1.815c0.412-0.481,0.855-0.928,1.301-1.372c0.354-0.353,0.619-0.782,1.002-1.106 c0.113-0.096,0.225-0.196,0.336-0.293c0.097-0.025,0.134,0.009,0.107,0.107c-0.086,0.181-0.206,0.336-0.34,0.487 c-0.274,0.309-0.528,0.636-0.791,0.955c-0.2,0.243-0.392,0.494-0.604,0.726c-0.549,0.599-1.049,1.237-1.565,1.862 c-0.465,0.561-0.96,1.097-1.435,1.651c-0.247,0.289-0.474,0.594-0.713,0.89c-0.197,0.245-0.435,0.452-0.621,0.712 c-0.229,0.322-0.519,0.601-0.777,0.903c-0.333,0.39-0.664,0.782-0.992,1.176c-0.201,0.242-0.436,0.452-0.622,0.711 c-0.241,0.335-0.534,0.633-0.814,0.938c-0.37,0.402-0.725,0.817-1.063,1.246c-0.205,0.261-0.437,0.501-0.656,0.746 c-0.321,0.358-0.624,0.731-0.949,1.086c-0.347,0.378-0.665,0.781-0.996,1.173c-0.043,0.051-0.088,0.1-0.135,0.147 c-0.434,0.435-0.793,0.935-1.207,1.385c-0.348,0.378-0.668,0.781-1.021,1.155c-0.363,0.384-0.689,0.803-1.032,1.207 c-0.021,0.026-0.043,0.051-0.065,0.075c-0.381,0.416-0.767,0.827-1.14,1.25c-0.339,0.385-0.663,0.783-0.994,1.174 c-0.043,0.051-0.089,0.1-0.135,0.147c-0.504,0.506-0.938,1.072-1.418,1.597c-0.369,0.404-0.739,0.81-1.089,1.229 c-0.371,0.446-0.816,0.826-1.142,1.31c-0.019,0.027-0.043,0.051-0.065,0.076c-0.369,0.404-0.766,0.786-1.099,1.217 c-0.387,0.501-0.893,0.892-1.246,1.419c-0.018,0.027-0.043,0.05-0.066,0.075c-0.427,0.462-0.881,0.904-1.275,1.394 c-0.365,0.453-0.817,0.826-1.142,1.311c-0.019,0.027-0.043,0.051-0.065,0.075c-0.428,0.463-0.861,0.921-1.281,1.39 c-0.387,0.432-0.76,0.875-1.139,1.313c-0.032,0.038-0.06,0.081-0.097,0.113c-0.546,0.489-0.998,1.068-1.483,1.611 c-0.419,0.468-0.891,0.892-1.249,1.415c-0.019,0.027-0.042,0.051-0.067,0.073c-0.547,0.488-1.008,1.06-1.481,1.613 c-0.442,0.516-0.975,0.95-1.357,1.519c-0.018,0.027-0.044,0.049-0.067,0.073c-0.58,0.616-1.157,1.236-1.743,1.846 c-0.265,0.275-0.47,0.599-0.753,0.861c-0.266,0.247-0.544,0.49-0.73,0.813c-0.016,0.028-0.044,0.049-0.067,0.073 c-0.604,0.64-1.229,1.261-1.806,1.923c-0.481,0.552-1.023,1.045-1.492,1.602c-0.355,0.421-0.766,0.785-1.117,1.203 c-0.556,0.664-1.21,1.234-1.772,1.886c-0.403,0.468-0.837,0.898-1.264,1.339c-0.358,0.37-0.644,0.804-1.039,1.139 c-0.113,0.097-0.224,0.196-0.336,0.294C932.911,78.672,932.874,78.639,932.9,78.542"/>
      <path clip-path="url(#SVGID_2_)" fill="#099C00" d="M926.614,84.059c0.053-0.016,0.082-0.052,0.092-0.105 c0.053-0.016,0.084-0.051,0.095-0.105c0.053-0.015,0.084-0.051,0.094-0.105c0.054-0.015,0.085-0.051,0.095-0.105 c0.054-0.015,0.085-0.05,0.095-0.105c0.054-0.014,0.085-0.049,0.096-0.103c0.146-0.092,0.252-0.219,0.33-0.372 c0.053-0.015,0.083-0.051,0.092-0.105c0.053-0.015,0.084-0.051,0.094-0.105c0.054-0.015,0.085-0.051,0.095-0.105 c0.054-0.014,0.086-0.05,0.095-0.104c0.054-0.015,0.085-0.05,0.095-0.105c0.053-0.014,0.085-0.049,0.097-0.102 c0.142-0.096,0.253-0.22,0.329-0.373c0.054-0.015,0.083-0.051,0.092-0.105c0.053-0.016,0.084-0.052,0.095-0.105 c0.053-0.015,0.084-0.051,0.094-0.105c0.054-0.014,0.086-0.049,0.096-0.103c0.029-0.003,0.057-0.006,0.086-0.009 c1.197,0.002,2.394,0.004,3.592,0.004c5.67,0,11.341,0.002,17.012-0.002c0.464-0.001,0.925,0.006,1.373,0.138 c0.044,0.084,0.01,0.167-0.017,0.239c-0.262,0.698-0.532,1.393-0.794,2.091c-0.054,0.143-0.144,0.219-0.293,0.223 c-0.15,0.004-0.3,0.004-0.449,0.004c-7.401,0-14.801,0-22.201,0c-0.199,0-0.399,0.004-0.598,0.006 C926.458,84.211,926.602,84.163,926.614,84.059"/>
      <path clip-path="url(#SVGID_2_)" fill="#099C00" d="M961.762,69.394c0.39-0.09,0.768-0.215,1.17-0.184 c0.198,0.015,0.395-0.001,0.592-0.062c0.138-0.043,0.295-0.027,0.444-0.034c0.496-0.021,0.997,0.051,1.486-0.092 c0.094-0.026,0.199-0.007,0.298-0.007c0.483-0.002,0.966-0.001,1.448-0.005c0.248-0.002,0.495,0.014,0.74-0.071 c0.121-0.041,0.264-0.023,0.396-0.023c2.862-0.001,5.724-0.001,8.586-0.001c0.182,0,0.361,0.001,0.543,0.053 c0.14,0.04,0.295,0.039,0.442,0.041c0.5,0.005,0.999,0.002,1.498,0.005c0.281,0.002,0.56-0.003,0.84,0.073 c0.188,0.052,0.396,0.017,0.596,0.025c0.413,0.017,0.832-0.048,1.237,0.088c0.061,0.02,0.133,0.015,0.198,0.01 c0.449-0.033,0.885,0.058,1.328,0.135c-0.024,0.094-0.098,0.062-0.148,0.064c-0.298,0.01-0.596-0.012-0.888,0.087 c-0.105,0.035-0.23,0.012-0.347,0.015c-0.315,0.007-0.625,0.013-0.94,0.075c-0.305,0.06-0.629,0.019-0.945,0.026 c-0.313,0.007-0.63-0.024-0.939,0.078c-0.121,0.04-0.263,0.018-0.396,0.018c-0.648,0.003-1.298,0.002-1.946,0.006 c-0.281,0.002-0.563-0.021-0.839,0.075c-0.105,0.036-0.231,0.019-0.348,0.019c-2.112,0-4.226,0-6.338,0 c-0.183,0-0.362-0.005-0.542-0.061c-0.124-0.038-0.263-0.031-0.395-0.032c-0.566-0.004-1.132-0.001-1.697-0.006 c-0.331-0.002-0.659,0.004-0.99-0.075c-0.237-0.056-0.496-0.014-0.745-0.023c-0.463-0.017-0.929,0.046-1.388-0.087 c-0.139-0.04-0.298-0.009-0.447-0.013c-0.298-0.007-0.593,0.005-0.89-0.075C962.223,69.38,961.986,69.405,961.762,69.394"/>
    </g>
  </g>
</svg>